<svg id="visual" viewBox="0 0 900 600" width="900" height="600" xmlns="http://www.w3.org/2000/svg" xmlns:xlink="http://www.w3.org/1999/xlink" version="1.1"><g stroke-width="16" stroke-linejoin="bevel"><path d="M465 285.1L476 332.9L522 253.1Z" fill="#9ed8a7" stroke="#FFFFFF"></path><path d="M476 332.9L568 345.9L522 253.1Z" fill="#8dc895" stroke="#FFFFFF"></path><path d="M632 232.1L555 199.4L522 253.1Z" fill="#98d3a1" stroke="#FFFFFF"></path><path d="M522 253.1L427 138.4L465 285.1Z" fill="#c2f8cb" stroke="#FFFFFF"></path><path d="M568 345.9L632 232.1L522 253.1Z" fill="#8dc895" stroke="#FFFFFF"></path><path d="M369 368.9L451 419.6L476 332.9Z" fill="#93cd9b" stroke="#FFFFFF"></path><path d="M476 332.9L539 450.6L568 345.9Z" fill="#bcf3c5" stroke="#FFFFFF"></path><path d="M568 345.9L662 400.6L639 321.9Z" fill="#c2f8cb" stroke="#FFFFFF"></path><path d="M639 321.9L632 232.1L568 345.9Z" fill="#aae2b3" stroke="#FFFFFF"></path><path d="M427 138.4L368 278.1L465 285.1Z" fill="#9ed8a7" stroke="#FFFFFF"></path><path d="M465 285.1L368 278.1L476 332.9Z" fill="#8dc895" stroke="#FFFFFF"></path><path d="M632 232.1L607 187.4L555 199.4Z" fill="#b0e8b9" stroke="#FFFFFF"></path><path d="M451 419.6L539 450.6L476 332.9Z" fill="#93cd9b" stroke="#FFFFFF"></path><path d="M368 278.1L369 368.9L476 332.9Z" fill="#98d3a1" stroke="#FFFFFF"></path><path d="M474 67.7L427 138.4L555 199.4Z" fill="#98d3a1" stroke="#FFFFFF"></path><path d="M555 199.4L427 138.4L522 253.1Z" fill="#a4ddad" stroke="#FFFFFF"></path><path d="M539 450.6L662 400.6L568 345.9Z" fill="#9ed8a7" stroke="#FFFFFF"></path><path d="M639 321.9L704 267.1L632 232.1Z" fill="#b6edbf" stroke="#FFFFFF"></path><path d="M662 400.6L694 366.9L639 321.9Z" fill="#c2f8cb" stroke="#FFFFFF"></path><path d="M694 366.9L704 267.1L639 321.9Z" fill="#87c38f" stroke="#FFFFFF"></path><path d="M632 232.1L751 195.4L607 187.4Z" fill="#aae2b3" stroke="#FFFFFF"></path><path d="M714 88.7L599 115.7L607 187.4Z" fill="#b0e8b9" stroke="#FFFFFF"></path><path d="M607 187.4L599 115.7L555 199.4Z" fill="#bcf3c5" stroke="#FFFFFF"></path><path d="M427 138.4L364 154.4L368 278.1Z" fill="#b0e8b9" stroke="#FFFFFF"></path><path d="M279 329.9L333 426.6L369 368.9Z" fill="#bcf3c5" stroke="#FFFFFF"></path><path d="M451 419.6L509 509.3L539 450.6Z" fill="#9ed8a7" stroke="#FFFFFF"></path><path d="M539 450.6L621 486.3L662 400.6Z" fill="#93cd9b" stroke="#FFFFFF"></path><path d="M452 522.3L509 509.3L451 419.6Z" fill="#98d3a1" stroke="#FFFFFF"></path><path d="M509 509.3L621 486.3L539 450.6Z" fill="#87c38f" stroke="#FFFFFF"></path><path d="M662 400.6L747 449.6L694 366.9Z" fill="#bcf3c5" stroke="#FFFFFF"></path><path d="M279 329.9L369 368.9L368 278.1Z" fill="#87c38f" stroke="#FFFFFF"></path><path d="M369 368.9L333 426.6L451 419.6Z" fill="#bcf3c5" stroke="#FFFFFF"></path><path d="M363 524.3L452 522.3L451 419.6Z" fill="#b0e8b9" stroke="#FFFFFF"></path><path d="M715 600L749 485.3L621 486.3Z" fill="#b6edbf" stroke="#FFFFFF"></path><path d="M281 244.1L279 329.9L368 278.1Z" fill="#b6edbf" stroke="#FFFFFF"></path><path d="M599 115.7L474 67.7L555 199.4Z" fill="#b0e8b9" stroke="#FFFFFF"></path><path d="M427 138.4L329 104.7L364 154.4Z" fill="#aae2b3" stroke="#FFFFFF"></path><path d="M364 154.4L281 244.1L368 278.1Z" fill="#b0e8b9" stroke="#FFFFFF"></path><path d="M599 115.7L569 57.7L474 67.7Z" fill="#9ed8a7" stroke="#FFFFFF"></path><path d="M653 0L569 57.7L599 115.7Z" fill="#98d3a1" stroke="#FFFFFF"></path><path d="M790 256.1L751 195.4L704 267.1Z" fill="#c2f8cb" stroke="#FFFFFF"></path><path d="M704 267.1L751 195.4L632 232.1Z" fill="#93cd9b" stroke="#FFFFFF"></path><path d="M366 0L329 104.7L427 138.4Z" fill="#93cd9b" stroke="#FFFFFF"></path><path d="M364 154.4L251 151.4L281 244.1Z" fill="#9ed8a7" stroke="#FFFFFF"></path><path d="M263 499.3L363 524.3L333 426.6Z" fill="#aae2b3" stroke="#FFFFFF"></path><path d="M333 426.6L363 524.3L451 419.6Z" fill="#aae2b3" stroke="#FFFFFF"></path><path d="M621 486.3L747 449.6L662 400.6Z" fill="#bcf3c5" stroke="#FFFFFF"></path><path d="M793 370.9L790 256.1L704 267.1Z" fill="#aae2b3" stroke="#FFFFFF"></path><path d="M168 373.9L272 446.6L279 329.9Z" fill="#9ed8a7" stroke="#FFFFFF"></path><path d="M279 329.9L272 446.6L333 426.6Z" fill="#9ed8a7" stroke="#FFFFFF"></path><path d="M793 370.9L704 267.1L694 366.9Z" fill="#aae2b3" stroke="#FFFFFF"></path><path d="M747 449.6L793 370.9L694 366.9Z" fill="#b6edbf" stroke="#FFFFFF"></path><path d="M784 165.4L714 88.7L751 195.4Z" fill="#98d3a1" stroke="#FFFFFF"></path><path d="M751 195.4L714 88.7L607 187.4Z" fill="#93cd9b" stroke="#FFFFFF"></path><path d="M329 104.7L251 151.4L364 154.4Z" fill="#8dc895" stroke="#FFFFFF"></path><path d="M281 244.1L181 264.1L279 329.9Z" fill="#b0e8b9" stroke="#FFFFFF"></path><path d="M569 57.7L541 0L474 67.7Z" fill="#93cd9b" stroke="#FFFFFF"></path><path d="M474 67.7L366 0L427 138.4Z" fill="#a4ddad" stroke="#FFFFFF"></path><path d="M653 0L541 0L569 57.7Z" fill="#93cd9b" stroke="#FFFFFF"></path><path d="M566 600L621 486.3L509 509.3Z" fill="#9ed8a7" stroke="#FFFFFF"></path><path d="M621 486.3L749 485.3L747 449.6Z" fill="#98d3a1" stroke="#FFFFFF"></path><path d="M747 449.6L842 449.6L793 370.9Z" fill="#aae2b3" stroke="#FFFFFF"></path><path d="M790 256.1L784 165.4L751 195.4Z" fill="#93cd9b" stroke="#FFFFFF"></path><path d="M541 0L454 0L474 67.7Z" fill="#9ed8a7" stroke="#FFFFFF"></path><path d="M329 104.7L276 89.7L251 151.4Z" fill="#98d3a1" stroke="#FFFFFF"></path><path d="M446 600L509 509.3L452 522.3Z" fill="#87c38f" stroke="#FFFFFF"></path><path d="M446 600L566 600L509 509.3Z" fill="#9ed8a7" stroke="#FFFFFF"></path><path d="M363 524.3L446 600L452 522.3Z" fill="#bcf3c5" stroke="#FFFFFF"></path><path d="M337 600L446 600L363 524.3Z" fill="#87c38f" stroke="#FFFFFF"></path><path d="M566 600L603 600L621 486.3Z" fill="#98d3a1" stroke="#FFFFFF"></path><path d="M280 0L276 89.7L329 104.7Z" fill="#8dc895" stroke="#FFFFFF"></path><path d="M162 460.6L263 499.3L272 446.6Z" fill="#8dc895" stroke="#FFFFFF"></path><path d="M272 446.6L263 499.3L333 426.6Z" fill="#a4ddad" stroke="#FFFFFF"></path><path d="M201 150.4L281 244.1L251 151.4Z" fill="#93cd9b" stroke="#FFFFFF"></path><path d="M201 150.4L181 264.1L281 244.1Z" fill="#b6edbf" stroke="#FFFFFF"></path><path d="M714 0L653 0L714 88.7Z" fill="#aae2b3" stroke="#FFFFFF"></path><path d="M714 88.7L653 0L599 115.7Z" fill="#aae2b3" stroke="#FFFFFF"></path><path d="M454 0L366 0L474 67.7Z" fill="#87c38f" stroke="#FFFFFF"></path><path d="M201 86.7L201 150.4L251 151.4Z" fill="#aae2b3" stroke="#FFFFFF"></path><path d="M201 86.7L251 151.4L276 89.7Z" fill="#b0e8b9" stroke="#FFFFFF"></path><path d="M296 600L337 600L363 524.3Z" fill="#8dc895" stroke="#FFFFFF"></path><path d="M784 165.4L793 97.7L714 88.7Z" fill="#bcf3c5" stroke="#FFFFFF"></path><path d="M900 190.4L793 97.7L784 165.4Z" fill="#aae2b3" stroke="#FFFFFF"></path><path d="M900 190.4L784 165.4L790 256.1Z" fill="#c2f8cb" stroke="#FFFFFF"></path><path d="M181 264.1L168 373.9L279 329.9Z" fill="#98d3a1" stroke="#FFFFFF"></path><path d="M263 499.3L296 600L363 524.3Z" fill="#bcf3c5" stroke="#FFFFFF"></path><path d="M793 97.7L714 0L714 88.7Z" fill="#93cd9b" stroke="#FFFFFF"></path><path d="M603 600L715 600L621 486.3Z" fill="#aae2b3" stroke="#FFFFFF"></path><path d="M828 496.3L842 449.6L747 449.6Z" fill="#98d3a1" stroke="#FFFFFF"></path><path d="M828 496.3L747 449.6L749 485.3Z" fill="#87c38f" stroke="#FFFFFF"></path><path d="M793 370.9L900 310.9L790 256.1Z" fill="#c2f8cb" stroke="#FFFFFF"></path><path d="M187 600L296 600L263 499.3Z" fill="#aae2b3" stroke="#FFFFFF"></path><path d="M808 600L828 496.3L749 485.3Z" fill="#93cd9b" stroke="#FFFFFF"></path><path d="M280 0L201 86.7L276 89.7Z" fill="#93cd9b" stroke="#FFFFFF"></path><path d="M71 144.4L111 284.1L181 264.1Z" fill="#aae2b3" stroke="#FFFFFF"></path><path d="M181 264.1L111 284.1L168 373.9Z" fill="#87c38f" stroke="#FFFFFF"></path><path d="M366 0L280 0L329 104.7Z" fill="#b6edbf" stroke="#FFFFFF"></path><path d="M168 373.9L162 460.6L272 446.6Z" fill="#93cd9b" stroke="#FFFFFF"></path><path d="M900 396.6L793 370.9L842 449.6Z" fill="#93cd9b" stroke="#FFFFFF"></path><path d="M900 396.6L900 310.9L793 370.9Z" fill="#c2f8cb" stroke="#FFFFFF"></path><path d="M900 310.9L900 279.1L790 256.1Z" fill="#9ed8a7" stroke="#FFFFFF"></path><path d="M71 144.4L181 264.1L201 150.4Z" fill="#98d3a1" stroke="#FFFFFF"></path><path d="M168 373.9L62 415.6L162 460.6Z" fill="#a4ddad" stroke="#FFFFFF"></path><path d="M900 521.3L900 396.6L842 449.6Z" fill="#a4ddad" stroke="#FFFFFF"></path><path d="M900 279.1L900 190.4L790 256.1Z" fill="#c2f8cb" stroke="#FFFFFF"></path><path d="M793 97.7L836 0L714 0Z" fill="#b6edbf" stroke="#FFFFFF"></path><path d="M105 520.3L155 519.3L162 460.6Z" fill="#a4ddad" stroke="#FFFFFF"></path><path d="M162 460.6L155 519.3L263 499.3Z" fill="#a4ddad" stroke="#FFFFFF"></path><path d="M715 600L808 600L749 485.3Z" fill="#aae2b3" stroke="#FFFFFF"></path><path d="M828 496.3L900 521.3L842 449.6Z" fill="#98d3a1" stroke="#FFFFFF"></path><path d="M111 284.1L83 344.9L168 373.9Z" fill="#9ed8a7" stroke="#FFFFFF"></path><path d="M0 324.9L83 344.9L0 272.1Z" fill="#a4ddad" stroke="#FFFFFF"></path><path d="M155 519.3L187 600L263 499.3Z" fill="#b6edbf" stroke="#FFFFFF"></path><path d="M116 600L187 600L155 519.3Z" fill="#aae2b3" stroke="#FFFFFF"></path><path d="M900 54.7L836 0L793 97.7Z" fill="#aae2b3" stroke="#FFFFFF"></path><path d="M808 600L900 521.3L828 496.3Z" fill="#8dc895" stroke="#FFFFFF"></path><path d="M900 190.4L900 54.7L793 97.7Z" fill="#bcf3c5" stroke="#FFFFFF"></path><path d="M62 415.6L105 520.3L162 460.6Z" fill="#a4ddad" stroke="#FFFFFF"></path><path d="M83 344.9L62 415.6L168 373.9Z" fill="#98d3a1" stroke="#FFFFFF"></path><path d="M280 0L156 0L201 86.7Z" fill="#b0e8b9" stroke="#FFFFFF"></path><path d="M201 86.7L71 144.4L201 150.4Z" fill="#bcf3c5" stroke="#FFFFFF"></path><path d="M83 344.9L0 324.9L62 415.6Z" fill="#b0e8b9" stroke="#FFFFFF"></path><path d="M81 72.7L71 144.4L201 86.7Z" fill="#8dc895" stroke="#FFFFFF"></path><path d="M156 0L81 72.7L201 86.7Z" fill="#bcf3c5" stroke="#FFFFFF"></path><path d="M900 54.7L900 0L836 0Z" fill="#c2f8cb" stroke="#FFFFFF"></path><path d="M808 600L900 600L900 521.3Z" fill="#9ed8a7" stroke="#FFFFFF"></path><path d="M105 520.3L116 600L155 519.3Z" fill="#9ed8a7" stroke="#FFFFFF"></path><path d="M0 600L116 600L105 520.3Z" fill="#87c38f" stroke="#FFFFFF"></path><path d="M156 0L114 0L81 72.7Z" fill="#b6edbf" stroke="#FFFFFF"></path><path d="M0 272.1L83 344.9L111 284.1Z" fill="#a4ddad" stroke="#FFFFFF"></path><path d="M62 415.6L0 485.3L105 520.3Z" fill="#9ed8a7" stroke="#FFFFFF"></path><path d="M0 272.1L111 284.1L71 144.4Z" fill="#b6edbf" stroke="#FFFFFF"></path><path d="M0 170.4L0 272.1L71 144.4Z" fill="#8dc895" stroke="#FFFFFF"></path><path d="M0 116.7L71 144.4L81 72.7Z" fill="#87c38f" stroke="#FFFFFF"></path><path d="M0 116.7L0 170.4L71 144.4Z" fill="#93cd9b" stroke="#FFFFFF"></path><path d="M0 324.9L0 441.6L62 415.6Z" fill="#b0e8b9" stroke="#FFFFFF"></path><path d="M0 0L0 116.7L81 72.7Z" fill="#bcf3c5" stroke="#FFFFFF"></path><path d="M0 441.6L0 485.3L62 415.6Z" fill="#b6edbf" stroke="#FFFFFF"></path><path d="M114 0L0 0L81 72.7Z" fill="#98d3a1" stroke="#FFFFFF"></path><path d="M0 485.3L0 600L105 520.3Z" fill="#93cd9b" stroke="#FFFFFF"></path></g></svg>